<svg xmlns="http://www.w3.org/2000/svg" width="17.999" height="18" viewBox="0 0 17.999 18" fill="none">
  <path d="M 11.333 0 C 12.438 0 13.333 0.895 13.333 2 L 13.333 4.667 L 15.999 4.667 C 17.104 4.667 17.999 5.562 17.999 6.667 L 17.999 16 C 17.999 17.104 17.103 18 15.999 18 L 6.666 18 L 6.462 17.99 C 5.453 17.888 4.666 17.035 4.666 16 L 4.666 13.333 L 2 13.333 L 1.796 13.323 C 0.787 13.221 0 12.369 0 11.333 L 0 2 C 0 0.895 0.895 0 2 0 L 11.333 0 Z M 13.333 11.333 C 13.333 12.438 12.438 13.333 11.333 13.333 L 6.666 13.333 L 6.666 16 L 15.999 16 L 15.999 6.667 L 13.333 6.667 L 13.333 11.333 Z M 2 11.333 L 4.666 11.333 L 4.666 6.667 C 4.666 5.562 5.561 4.667 6.666 4.667 L 11.333 4.667 L 11.333 2 L 2 2 L 2 11.333 Z M 6.666 11.333 L 11.333 11.333 L 11.333 6.667 L 6.666 6.667 L 6.666 11.333 Z" fill="currentColor" fill-rule="nonzero"></path>
</svg>